<svg xmlns="http://www.w3.org/2000/svg" viewBox="0 0 231.65 73.07"><title>Asset 15</title><g id="Layer_2" data-name="Layer 2"><g id="Layer_1-2" data-name="Layer 1"><polygon points="9.3 1.98 5.72 1.98 5.72 8.83 3.59 8.83 3.59 1.98 0 1.98 0 0 9.3 0 9.3 1.98"/><polygon points="22.51 8.83 20.38 8.83 20.38 5.13 14.66 5.13 14.66 8.83 12.52 8.83 12.52 0 14.66 0 14.66 3.21 20.38 3.21 20.38 0 22.51 0 22.51 8.83"/><polygon points="35.91 1.82 28.75 1.82 28.75 3.38 35.03 3.38 35.03 5.22 28.75 5.22 28.75 6.82 36.09 6.82 36.09 8.83 26.6 8.83 26.6 0 35.91 0 35.91 1.82"/><path d="M26.22,27.31v2.31h6.91c.92,0,1.51-.41,1.51-1.2s-.59-1.11-1.51-1.11Zm0,5.16v4.91h-3.1V24.53h10c3.18,0,4.76,1.53,4.76,4s-1.61,4-4.89,4Z"/><path d="M50.51,26.85c-3.22,0-5,1.58-5,4.1s1.79,4.09,5,4.09,5-1.58,5-4.09-1.79-4.1-5-4.1m0,10.95c-4.51,0-8.26-2.49-8.26-6.85s3.75-6.84,8.26-6.84,8.26,2.5,8.26,6.84S55,37.8,50.51,37.8"/><polygon points="67.45 34.28 76.93 34.28 76.93 37.38 64.34 37.38 64.34 24.53 67.45 24.53 67.45 34.28"/><rect x="81.61" y="24.53" width="3.12" height="12.85"/><path d="M102.63,29.31c-.46-1.43-2.12-2.46-4.23-2.46-2.86,0-4.63,1.58-4.63,4.1S95.43,35,98.44,35a4.23,4.23,0,0,0,4.15-2.26L105.25,34c-1,2.42-3.35,3.79-7,3.79-4.3,0-7.69-2.49-7.69-6.85s3.61-6.84,7.88-6.84c3.33,0,6,1.7,6.93,3.81Z"/><polygon points="118.69 33.42 118.69 37.38 115.49 37.38 115.49 33.42 109.53 24.53 113.32 24.53 117.19 30.36 120.92 24.53 124.55 24.53 118.69 33.42"/><rect x="51" y="57.01" width="3.9" height="16.06"/><polygon points="81.6 73.07 77.55 73.07 66.72 62.01 66.72 73.07 62.63 73.07 62.63 57.01 66.77 57.01 77.5 67.69 77.5 57.01 81.6 57.01 81.6 73.07"/><rect x="89.33" y="57.01" width="3.9" height="16.06"/><polygon points="116.33 60.6 109.81 60.6 109.81 73.07 105.93 73.07 105.93 60.6 99.41 60.6 99.41 57.01 116.33 57.01 116.33 60.6"/><rect x="122.44" y="57.01" width="3.9" height="16.06"/><path d="M139.74,66.6h5.69l-2.81-6.19Zm13.16,6.47h-4.52l-1.5-3.28h-8.61l-1.53,3.28h-4.16L140.17,57h5Z"/><polygon points="171.74 60.6 165.22 60.6 165.22 73.07 161.34 73.07 161.34 60.6 154.82 60.6 154.82 57.01 171.74 57.01 171.74 60.6"/><rect x="177.86" y="57.01" width="3.9" height="16.06"/><polygon points="200.29 73.07 196.15 73.07 187.99 57.01 192.39 57.01 198.32 68.98 204.24 57.01 208.57 57.01 200.29 73.07"/><polygon points="231.32 60.32 218.3 60.32 218.3 63.15 229.72 63.15 229.72 66.5 218.3 66.5 218.3 69.41 231.65 69.41 231.65 73.07 214.4 73.07 214.4 57.01 231.32 57.01 231.32 60.32"/></g></g></svg>